HIERARCHY
ROOT hip
{
	OFFSET 0.000000 0.000000 0.000000 
	CHANNELS 6 Xposition Yposition Zposition Xrotation Zrotation Yrotation
	JOINT abdomen
	{
		OFFSET 0.000000 3.402643 0.000000 
		CHANNELS 3 Xrotation Zrotation Yrotation
		JOINT chest
		{
			OFFSET 0.000000 8.438565 -0.680529 
			CHANNELS 3 Xrotation Zrotation Yrotation
			JOINT neck
			{
				OFFSET 0.000000 10.207942 -0.272212 
				CHANNELS 3 Xrotation Zrotation Yrotation
				JOINT head
				{
					OFFSET 0.000000 3.130431 0.000000 
					CHANNELS 3 Xrotation Zrotation Yrotation
					End Site
					{
						OFFSET 0.000000 3.130435 0.000000 
					}
				}
			}
			JOINT lCollar
			{
				OFFSET 3.470700 6.669187 -0.816635 
				CHANNELS 3 Yrotation Zrotation Xrotation
				JOINT lShldr
				{
					OFFSET 3.198488 0.000000 0.000000 
					CHANNELS 3 Zrotation Yrotation Xrotation
					JOINT lForeArm
					{
						OFFSET 10.139888 0.000000 0.000000 
						CHANNELS 3 Yrotation Zrotation Xrotation
						JOINT lHand
						{
							OFFSET 8.370511 0.000000 0.000000 
							CHANNELS 3 Zrotation Yrotation Xrotation
							End Site
							{
								OFFSET 4.083176 0.000000 0.000000 
							}
						}
					}
				}
			}
			JOINT rCollar
			{
				OFFSET -3.470700 6.669187 -0.816635 
				CHANNELS 3 Yrotation Zrotation Xrotation
				JOINT rShldr
				{
					OFFSET -3.198488 0.000000 0.000000 
					CHANNELS 3 Zrotation Yrotation Xrotation
					JOINT rForeArm
					{
						OFFSET -10.139888 0.000000 0.000000 
						CHANNELS 3 Yrotation Zrotation Xrotation
						JOINT rHand
						{
							OFFSET -8.370511 0.000000 0.000000 
							CHANNELS 3 Zrotation Yrotation Xrotation
							End Site
							{
								OFFSET -4.083176 0.000000 0.000000 
							}
						}
					}
				}
			}
		}
	}
	JOINT lThigh
	{
		OFFSET 5.308129 -1.633274 1.361059 
		CHANNELS 3 Xrotation Zrotation Yrotation
		JOINT lShin
		{
			OFFSET -2.041588 -20.007561 0.000000 
			CHANNELS 3 Xrotation Zrotation Yrotation
			JOINT lFoot
			{
				OFFSET 0.000000 -19.190928 -1.224953 
				CHANNELS 3 Xrotation Yrotation Zrotation
				End Site
				{
					OFFSET 0.000000 -2.449906 4.627600 
				}
			}
		}
	}
	JOINT rThigh
	{
		OFFSET -5.308129 -1.633274 1.361059 
		CHANNELS 3 Xrotation Zrotation Yrotation
		JOINT rShin
		{
			OFFSET 2.041588 -20.007561 0.000000 
			CHANNELS 3 Xrotation Zrotation Yrotation
			JOINT rFoot
			{
				OFFSET 0.000000 -19.190928 -1.224953 
				CHANNELS 3 Xrotation Yrotation Zrotation
				End Site
				{
					OFFSET 0.000000 -2.449906 4.627600 
				}
			}
		}
	}
}
MOTION
Frames: 8
Frame Time: 0.016667
-0.097837 30.821535 36.348309 -9.707032 3.037110 1.455078 0.000000 0.000000 0.000000 3.193359 -2.470703 -1.230478 16.464844 -4.755859 -0.703935 -16.845703 4.462891 -1.972656 -1.582031 -25.000000 12.767799 -58.701172 -12.392578 28.837889 -49.482422 0.791016 45.986332 25.927734 3.085938 -7.460410 -3.437500 21.718750 13.189746 66.210938 15.732422 40.578823 51.328125 -5.117187 49.150394 -16.064453 -3.466797 -6.592388 -61.552387 6.083229 -2.558342 78.304794 -2.812072 -8.070406 -9.417177 -0.166400 1.095876 -61.770531 -10.389367 -3.989170 78.780411 -5.271740 8.852840 -7.571103 0.741917 -6.624307 
-0.088053 30.820940 36.346233 -9.550780 3.212891 1.357969 0.000000 0.000000 0.000000 3.125000 -2.539063 -1.211370 16.718750 -4.755859 -0.546875 -16.992189 4.189453 -1.835938 -1.660156 -25.000000 12.445482 -58.974613 -12.392579 28.935551 -49.296875 0.800781 46.035160 26.044924 3.125000 -7.450638 -3.154297 21.669922 12.896784 66.093750 15.576173 40.617859 51.416019 -5.107422 48.926647 -16.132813 -3.496094 -6.582032 -61.641685 5.985441 -2.448922 78.317719 -2.801038 -7.976669 -9.398850 -0.200533 1.058021 -61.995399 -10.418994 -3.720871 78.805176 -5.272779 8.977663 -7.529537 0.744876 -6.729282 
-0.078329 30.821421 36.345284 -9.482422 3.261719 1.299384 0.000000 0.000000 0.000000 3.105469 -2.548828 -1.201606 16.640625 -4.892579 -0.459817 -16.640623 4.248047 -1.835214 -1.640625 -25.000000 12.347826 -58.847652 -12.421876 29.158054 -49.287109 0.800781 45.927666 26.035156 3.369141 -7.392002 -3.056641 21.679689 12.812501 65.947266 15.546875 40.822929 51.484375 -5.078125 48.554691 -16.230469 -3.476563 -6.601563 -61.677238 5.995674 -2.414808 78.330223 -2.800544 -7.901177 -9.465324 -0.183198 1.163441 -62.083443 -10.350774 -3.611953 78.865875 -5.263637 8.936396 -7.575003 0.721808 -6.644241 
-0.068697 30.823206 36.345486 -9.394530 3.320313 1.201737 0.000000 0.000000 0.000000 3.115234 -2.548828 -1.181641 16.396484 -4.951172 -0.322266 -16.142578 4.394532 -1.806641 -1.601563 -25.000000 12.343750 -59.023434 -12.558595 29.314283 -49.179688 0.810547 46.132813 26.191406 3.408203 -7.392652 -3.007812 21.679688 12.838190 65.820313 15.605471 40.881538 51.494141 -5.078125 48.438362 -16.142578 -3.369141 -6.611329 -61.732971 5.995563 -2.375344 78.312752 -2.801201 -7.842024 -9.463700 -0.166964 1.235877 -62.203133 -10.302251 -3.568386 78.883812 -5.292372 8.941854 -7.572975 0.703571 -6.631119 
-0.059225 30.826181 36.346878 -9.384766 3.261719 1.270087 0.000000 0.000000 0.000000 3.144531 -2.539063 -1.172308 16.455076 -4.472656 -0.371094 -15.917968 4.091797 -1.620397 -1.630859 -25.000000 12.460937 -59.130859 -12.714843 29.443357 -49.023438 0.810547 46.142441 26.308594 3.232422 -7.450622 -3.300781 21.884766 12.998048 65.625000 15.693358 40.986324 51.630859 -5.078125 48.271484 -16.142578 -3.291016 -6.611329 -61.790173 5.946557 -2.538612 78.352585 -2.791494 -7.819215 -9.456583 -0.178220 1.090322 -62.159672 -10.340506 -3.671721 78.876564 -5.254108 8.924767 -7.616624 0.723715 -6.719062 
-0.049963 30.830469 36.349476 -9.775391 2.998047 1.455078 0.000000 0.000000 0.000000 3.242188 -2.412109 -1.201583 17.187500 -4.296875 -0.488281 -16.220703 4.101563 -1.494141 -1.523438 -25.000000 12.978516 -58.554688 -12.656250 29.519342 -49.218750 0.800781 45.976429 26.425779 3.261719 -7.460937 -3.583984 21.884766 13.414330 65.859375 15.722656 40.969444 51.650391 -5.078125 48.447269 -16.132813 -3.320313 -6.611329 -61.515675 5.995193 -2.847679 78.397911 -2.800908 -7.926963 -9.476277 -0.178204 1.079588 -61.681404 -10.301216 -4.027707 78.860397 -5.291631 8.778701 -7.726007 0.739109 -6.574421 
-0.040977 30.836077 36.353325 -9.775391 2.978516 1.474609 0.000000 0.000000 0.000000 3.251953 -2.353516 -1.191807 17.685547 -4.482422 -0.449982 -16.484373 4.287109 -1.600833 -1.484375 -25.000000 13.027343 -58.222656 -12.343750 29.531252 -49.580082 0.810547 46.210938 26.533205 3.271484 -7.460380 -3.486328 21.816610 13.433768 65.859375 15.400392 40.930328 51.923828 -5.097656 48.555553 -16.123047 -3.437500 -6.591796 -61.487236 6.005295 -2.872680 78.366898 -2.800757 -7.971760 -9.476319 -0.203852 1.110489 -61.669739 -10.303030 -4.047843 78.840256 -5.270163 8.824665 -7.678607 0.713403 -6.510417 
-0.032301 30.842989 36.358429 -9.501953 2.958984 1.464844 0.000000 0.000000 0.000000 3.183594 -2.363281 -1.162512 17.822268 -4.433594 -0.469505 -16.455076 4.267578 -1.786383 -1.630859 -25.000000 12.705077 -58.183594 -11.796875 29.570314 -50.205082 0.810547 46.269527 26.425779 3.427734 -7.412108 -3.349610 21.914063 13.173828 65.576172 14.775392 40.930225 52.539063 -5.126954 48.515617 -16.416016 -3.320313 -6.640625 -61.792278 6.034419 -2.917492 78.347023 -2.801110 -7.979653 -9.427822 -0.140334 1.000499 -61.930775 -10.273232 -4.065199 78.762169 -5.272019 8.814816 -7.584166 0.754763 -6.618688 
